<svg width="26" height="26" viewBox="0 0 26 26" fill="none" xmlns="http://www.w3.org/2000/svg">
<path d="M15.1631 2.38767L17.3631 6.78767C17.6631 7.40017 18.4631 7.98767 19.1381 8.10017L23.1256 8.76267C25.6756 9.18767 26.2756 11.0377 24.4381 12.8627L21.3381 15.9627C20.8131 16.4877 20.5256 17.5002 20.6881 18.2252L21.5756 22.0627C22.2756 25.1002 20.6631 26.2752 17.9756 24.6877L14.2381 22.4752C13.5631 22.0752 12.4506 22.0752 11.7631 22.4752L8.02562 24.6877C5.35062 26.2752 3.72562 25.0877 4.42562 22.0627L5.31312 18.2252C5.47562 17.5002 5.18812 16.4877 4.66312 15.9627L1.56312 12.8627C-0.261881 11.0377 0.325619 9.18767 2.87562 8.76267L6.86312 8.10017C7.52562 7.98767 8.32562 7.40017 8.62562 6.78767L10.8256 2.38767C12.0256 0.000170946 13.9756 0.000170946 15.1631 2.38767Z" fill="#F3F3F3"/>
</svg>
